<svg xmlns="http://www.w3.org/2000/svg" fill="none" viewBox="0 0 24 24"><path fill="#45413C" d="M4 22.75c0 .199.843.39 2.343.53 1.5.141 3.535.22 5.657.22s4.157-.079 5.657-.22c1.5-.14 2.343-.331 2.343-.53s-.843-.39-2.343-.53c-1.5-.141-3.535-.22-5.657-.22s-4.157.079-5.657.22c-1.5.14-2.343.331-2.343.53Z" opacity=".15"/><path fill="#FFE500" d="M2 10.75a10 10 0 1 0 20 0 10 10 0 0 0-20 0Z"/><path fill="#EBCB00" d="M12 .75a10 10 0 1 0 0 20 10 10 0 0 0 0-20Zm0 18.5A9.126 9.126 0 1 1 12 .999a9.126 9.126 0 0 1 0 18.251Z"/><path fill="#FFF48C" d="M9 2.75c0 .199.316.39.879.53.562.141 1.325.22 2.121.22s1.559-.079 2.121-.22c.563-.14.879-.331.879-.53s-.316-.39-.879-.53C13.56 2.079 12.796 2 12 2s-1.559.079-2.121.22C9.316 2.36 9 2.55 9 2.75Z"/><path stroke="#45413C" stroke-linecap="round" stroke-linejoin="round" stroke-width=".5" d="M2 10.75a10 10 0 1 0 20 0 10 10 0 0 0-20 0v0Z"/><path fill="#FFAA54" d="M19.25 13.25c0 .415-.56.75-1.25.75s-1.25-.335-1.25-.75.56-.75 1.25-.75 1.25.335 1.25.75ZM4.75 13.25c0 .415.56.75 1.25.75s1.25-.335 1.25-.75-.56-.75-1.25-.75-1.25.335-1.25.75Z"/><path fill="#45413C" stroke="#45413C" stroke-linecap="round" stroke-linejoin="round" stroke-width=".5" d="M7.25 8.75a.5.5 0 1 1-1 0 .5.5 0 0 1 1 0ZM16.75 10.25a.5.5 0 1 0 1 0 .5.5 0 0 0-1 0Z"/><path fill="#87898C" d="M21.25 7H22a.75.75 0 0 1 .75.75v.75a.75.75 0 0 1-.75.75h-.75V7Z"/><path fill="#BDBEC0" d="M22 7h-.75v.75H22a.75.75 0 0 1 .75.75v-.75A.75.75 0 0 0 22 7Z"/><path stroke="#45413C" stroke-linecap="round" stroke-linejoin="round" stroke-width=".5" d="M21.25 7H22a.75.75 0 0 1 .75.75v.75a.75.75 0 0 1-.75.75h-.75V7Z"/><path fill="#87898C" d="M13.25 8.25a4.25 4.25 0 1 0 8.5 0 4.25 4.25 0 0 0-8.5 0Z"/><path fill="#BDBEC0" d="M17.5 5a4.25 4.25 0 0 1 4.22 3.75c0-.165.03-.33.03-.5a4.25 4.25 0 0 0-8.5 0c0 .17 0 .335.03.5A4.25 4.25 0 0 1 17.5 5Z"/><path stroke="#45413C" stroke-linecap="round" stroke-linejoin="round" stroke-width=".5" d="M13.25 8.25a4.25 4.25 0 1 0 8.5 0 4.25 4.25 0 0 0-8.5 0Z"/><path fill="#00B8F0" d="M14.25 8.25a3.25 3.25 0 1 0 6.5 0 3.25 3.25 0 0 0-6.5 0Z"/><path fill="#4ACFFF" d="M17.5 5a3.25 3.25 0 0 0-2.825 4.855l3.91-4.665A3.255 3.255 0 0 0 17.5 5Z"/><path stroke="#45413C" stroke-linecap="round" stroke-linejoin="round" stroke-width=".5" d="M14.25 8.25a3.25 3.25 0 1 0 6.5 0 3.25 3.25 0 0 0-6.5 0ZM22.75 8s.75.03.75 1v8.5a1.859 1.859 0 0 1-2 2 1.84 1.84 0 0 1-2-2v-.135M10.5 14.31c.469-.22.983-.326 1.5-.31a3.304 3.304 0 0 1 1.5.31M5.5 7.5s.21-1.25 1.25-1.25S8 7.5 8 7.5"/></svg>