<svg xmlns="http://www.w3.org/2000/svg" fill="none" viewBox="0 0 24 24"><g clip-path="url(#clip0_0_28)"><path fill="#FFE500" d="M3.92 10.33a9.33 9.33 0 1 0 18.66 0 9.33 9.33 0 0 0-18.66 0Z"/><path fill="#EBCB00" d="M13.25 1a9.33 9.33 0 1 0 0 18.66 9.33 9.33 0 0 0 0-18.66Zm0 17.26a8.5 8.5 0 1 1 0-17 8.5 8.5 0 0 1 0 17Z"/><path fill="#FFF48C" d="M10.45 2.865c0 .186.295.364.82.495.525.131 1.237.205 1.98.205.743 0 1.455-.074 1.98-.205.525-.131.82-.31.82-.495 0-.186-.295-.364-.82-.495-.525-.131-1.237-.205-1.98-.205-.743 0-1.455.074-1.98.205-.525.131-.82.31-.82.495Z"/><path fill="#fff" stroke="#45413C" stroke-linecap="round" stroke-linejoin="round" stroke-width=".5" d="M3.93 19.705a1.12 1.12 0 0 1 .84-.835l1.685-.37a.14.14 0 0 0 .105-.135.145.145 0 0 0-.105-.14L4.77 17.84a1.125 1.125 0 0 1-.84-.84l-.39-1.685a.14.14 0 0 0-.27 0L2.88 17a1.125 1.125 0 0 1-.84.84l-1.68.385a.145.145 0 0 0-.11.14.14.14 0 0 0 .11.135l1.68.39a1.11 1.11 0 0 1 .84.835l.39 1.685a.14.14 0 0 0 .27 0l.39-1.705ZM22.35 3l1.315-.44a.125.125 0 0 0 .085-.115.13.13 0 0 0-.085-.12L22.58 2a.5.5 0 0 1-.31-.315l-.36-1.08A.13.13 0 0 0 21.79.5a.125.125 0 0 0-.115.085l-.36 1.08A.5.5 0 0 1 21 2l-1.085.36a.13.13 0 0 0-.085.12.125.125 0 0 0 .085.115l1.085.34a.5.5 0 0 1 .315.315l.36 1.085a.125.125 0 0 0 .115.085.13.13 0 0 0 .12-.085L22.35 3Z"/><path fill="#45413C" d="M5.58 22.255c0 .099.193.196.568.287.375.091.925.174 1.618.243.694.07 1.517.125 2.422.163.906.038 1.877.057 2.857.057.98 0 1.951-.02 2.857-.057a42.375 42.375 0 0 0 2.422-.163c.693-.07 1.243-.152 1.618-.243s.568-.189.568-.287c0-.098-.193-.196-.568-.287-.375-.091-.925-.174-1.618-.243a42.375 42.375 0 0 0-2.422-.163 69.433 69.433 0 0 0-2.857-.057c-.98 0-1.951.02-2.857.057a42.37 42.37 0 0 0-2.422.163c-.693.07-1.243.152-1.618.243s-.568.189-.568.287Z" opacity=".15"/><path stroke="#45413C" stroke-linecap="round" stroke-linejoin="round" stroke-width=".5" d="M3.92 10.33a9.33 9.33 0 1 0 18.66 0 9.33 9.33 0 0 0-18.66 0v0Z"/><path stroke="#45413C" stroke-linecap="round" stroke-width=".5" d="M15.585 14.055a4.21 4.21 0 0 1-4.665 0"/><path fill="#FFAA54" d="M20 12.66c0 .39-.525.7-1.165.7s-1.17-.31-1.17-.7c0-.39.5-.7 1.17-.7.67 0 1.165.315 1.165.7ZM6.5 12.66c0 .39.5.7 1.165.7s1.17-.31 1.17-.7c0-.39-.525-.7-1.17-.7-.645 0-1.165.315-1.165.7Z"/><path fill="#656769" d="M19.935 11.96H17.22a2.69 2.69 0 0 1-2.66-2.25l-.375-2.245A1.345 1.345 0 0 1 15.5 5.9h6a1.345 1.345 0 0 1 1.34 1.5l-.24 2.17a2.7 2.7 0 0 1-2.665 2.39Z"/><path fill="#87898C" d="M14.56 9.71a2.68 2.68 0 0 0 1.17 1.79l5.605-5.6H15.5a1.345 1.345 0 0 0-1.33 1.565l.39 2.245Z"/><path stroke="#45413C" stroke-linecap="round" stroke-linejoin="round" stroke-width=".5" d="M19.935 11.96H17.22a2.69 2.69 0 0 1-2.66-2.25l-.375-2.245A1.345 1.345 0 0 1 15.5 5.9h6a1.345 1.345 0 0 1 1.34 1.5l-.24 2.17a2.7 2.7 0 0 1-2.665 2.39v0Z"/><path fill="#656769" d="M6.565 11.96H9.28a2.69 2.69 0 0 0 2.66-2.25l.375-2.245A1.345 1.345 0 0 0 11 5.9H5a1.35 1.35 0 0 0-1.34 1.5l.245 2.17a2.69 2.69 0 0 0 2.66 2.39Z"/><path fill="#87898C" d="M3.885 9.565a2.695 2.695 0 0 0 1.43 2.08l5.74-5.74H5a1.35 1.35 0 0 0-1.34 1.5l.225 2.16Z"/><path stroke="#45413C" stroke-linecap="round" stroke-linejoin="round" stroke-width=".5" d="M6.565 11.96H9.28a2.69 2.69 0 0 0 2.66-2.25l.375-2.245A1.345 1.345 0 0 0 11 5.9H5a1.35 1.35 0 0 0-1.34 1.5l.245 2.17a2.69 2.69 0 0 0 2.66 2.39v0Z"/><path stroke="#45413C" stroke-linecap="round" stroke-linejoin="round" stroke-width=".5" d="M14.64 6.23a3.09 3.09 0 0 0-2.78 0"/></g><defs><clipPath id="clip0_0_28"><path fill="#fff" d="M0 0h24v24H0z"/></clipPath></defs></svg>